<mxfile compressed="false" host="app.diagrams.net" modified="2022-03-05T08:14:06.017Z" agent="5.0 (Windows NT 10.0; Win64; x64) AppleWebKit/537.36 (KHTML, like Gecko) Chrome/98.0.4758.102 Safari/537.36 Edg/98.0.1108.62" etag="m53LKz7977UIeGYWZk1z" version="16.6.6" type="device">
  <diagram id="85OPB4iYP1H9sOdMJJdA" name="Page-1">
    <mxGraphModel dx="1157" dy="643" grid="1" gridSize="10" guides="1" tooltips="1" connect="1" arrows="1" fold="1" page="1" pageScale="1" pageWidth="827" pageHeight="1169" math="0" shadow="0">
      <root>
        <mxCell id="0" />
        <mxCell id="1" parent="0" />
        <mxCell id="7WhLit7YFjIoFo8CH_9x-5" style="edgeStyle=orthogonalEdgeStyle;rounded=0;orthogonalLoop=1;jettySize=auto;html=1;entryX=0;entryY=0.5;entryDx=0;entryDy=0;" parent="1" source="7WhLit7YFjIoFo8CH_9x-1" target="7WhLit7YFjIoFo8CH_9x-4" edge="1">
          <mxGeometry relative="1" as="geometry">
            <Array as="points">
              <mxPoint x="70" y="262" />
            </Array>
            <mxPoint x="110" y="260" as="targetPoint" />
          </mxGeometry>
        </mxCell>
        <mxCell id="7WhLit7YFjIoFo8CH_9x-1" value="The products" style="rounded=1;whiteSpace=wrap;html=1;strokeWidth=1;" parent="1" vertex="1">
          <mxGeometry x="120" y="170" width="100" height="50" as="geometry" />
        </mxCell>
        <mxCell id="7WhLit7YFjIoFo8CH_9x-3" style="edgeStyle=orthogonalEdgeStyle;rounded=0;orthogonalLoop=1;jettySize=auto;html=1;entryX=0;entryY=0.5;entryDx=0;entryDy=0;" parent="1" source="7WhLit7YFjIoFo8CH_9x-2" target="L0uSID0zt98I0tKJ0zpe-1" edge="1">
          <mxGeometry relative="1" as="geometry">
            <Array as="points">
              <mxPoint x="101" y="60" />
              <mxPoint x="101" y="115" />
            </Array>
          </mxGeometry>
        </mxCell>
        <mxCell id="7WhLit7YFjIoFo8CH_9x-2" value="" style="shape=ellipse;html=1;fillColor=#000000;strokeWidth=2;verticalLabelPosition=bottom;verticalAlignment=top;perimeter=ellipsePerimeter;" parent="1" vertex="1">
          <mxGeometry x="41" y="40" width="40" height="40" as="geometry" />
        </mxCell>
        <mxCell id="7WhLit7YFjIoFo8CH_9x-4" value="Purchased&amp;nbsp;" style="rounded=1;whiteSpace=wrap;html=1;strokeWidth=1;" parent="1" vertex="1">
          <mxGeometry x="90" y="242.5" width="140" height="40" as="geometry" />
        </mxCell>
        <mxCell id="L0uSID0zt98I0tKJ0zpe-16" value="" style="edgeStyle=orthogonalEdgeStyle;rounded=0;orthogonalLoop=1;jettySize=auto;html=1;" edge="1" parent="1" source="aerCkqadjuLeXgax63uh-11" target="L0uSID0zt98I0tKJ0zpe-8">
          <mxGeometry relative="1" as="geometry" />
        </mxCell>
        <mxCell id="aerCkqadjuLeXgax63uh-11" value="Deliver the Product" style="rounded=1;whiteSpace=wrap;html=1;strokeWidth=1;" parent="1" vertex="1">
          <mxGeometry x="517" y="241.5" width="120" height="40" as="geometry" />
        </mxCell>
        <mxCell id="aerCkqadjuLeXgax63uh-22" value="" style="html=1;shape=mxgraph.sysml.actFinal;strokeWidth=2;verticalLabelPosition=bottom;verticalAlignment=top;" parent="1" vertex="1">
          <mxGeometry x="720" y="241.5" width="40" height="40" as="geometry" />
        </mxCell>
        <mxCell id="L0uSID0zt98I0tKJ0zpe-2" style="edgeStyle=orthogonalEdgeStyle;rounded=0;orthogonalLoop=1;jettySize=auto;html=1;entryX=0.5;entryY=0;entryDx=0;entryDy=0;" edge="1" parent="1" source="L0uSID0zt98I0tKJ0zpe-1" target="7WhLit7YFjIoFo8CH_9x-1">
          <mxGeometry relative="1" as="geometry" />
        </mxCell>
        <mxCell id="L0uSID0zt98I0tKJ0zpe-1" value="Manufacturer" style="rounded=1;whiteSpace=wrap;html=1;strokeWidth=1;" vertex="1" parent="1">
          <mxGeometry x="120" y="90" width="100" height="50" as="geometry" />
        </mxCell>
        <mxCell id="L0uSID0zt98I0tKJ0zpe-3" value="" style="line;strokeWidth=10;html=1;rotation=90;" vertex="1" parent="1">
          <mxGeometry x="186.88" y="241.88" width="246.25" height="10" as="geometry" />
        </mxCell>
        <mxCell id="L0uSID0zt98I0tKJ0zpe-4" value="" style="line;strokeWidth=10;html=1;rotation=-90;" vertex="1" parent="1">
          <mxGeometry x="317.5" y="237.5" width="245" height="10" as="geometry" />
        </mxCell>
        <mxCell id="L0uSID0zt98I0tKJ0zpe-5" value="Design" style="rounded=1;whiteSpace=wrap;html=1;strokeWidth=1;" vertex="1" parent="1">
          <mxGeometry x="320" y="149" width="100" height="40" as="geometry" />
        </mxCell>
        <mxCell id="L0uSID0zt98I0tKJ0zpe-6" value="Order" style="rounded=1;whiteSpace=wrap;html=1;strokeWidth=1;" vertex="1" parent="1">
          <mxGeometry x="320" y="200.5" width="100" height="40" as="geometry" />
        </mxCell>
        <mxCell id="L0uSID0zt98I0tKJ0zpe-7" value="Realtime Update" style="rounded=1;whiteSpace=wrap;html=1;strokeWidth=1;" vertex="1" parent="1">
          <mxGeometry x="320" y="252" width="100" height="40" as="geometry" />
        </mxCell>
        <mxCell id="L0uSID0zt98I0tKJ0zpe-8" value="Profit/Loss" style="rounded=1;whiteSpace=wrap;html=1;strokeWidth=1;" vertex="1" parent="1">
          <mxGeometry x="320" y="301" width="100" height="40" as="geometry" />
        </mxCell>
        <mxCell id="L0uSID0zt98I0tKJ0zpe-9" value="" style="endArrow=block;endSize=16;endFill=0;html=1;rounded=0;exitX=1;exitY=0.5;exitDx=0;exitDy=0;" edge="1" parent="1" source="7WhLit7YFjIoFo8CH_9x-4">
          <mxGeometry width="160" relative="1" as="geometry">
            <mxPoint x="237" y="262.5" as="sourcePoint" />
            <mxPoint x="307" y="263" as="targetPoint" />
          </mxGeometry>
        </mxCell>
        <mxCell id="L0uSID0zt98I0tKJ0zpe-12" value="" style="endArrow=block;endSize=16;endFill=0;html=1;rounded=0;exitX=1;exitY=0.5;exitDx=0;exitDy=0;" edge="1" parent="1">
          <mxGeometry width="160" relative="1" as="geometry">
            <mxPoint x="440" y="262" as="sourcePoint" />
            <mxPoint x="517" y="262.5" as="targetPoint" />
          </mxGeometry>
        </mxCell>
        <mxCell id="L0uSID0zt98I0tKJ0zpe-17" value="" style="endArrow=block;endSize=16;endFill=0;html=1;rounded=0;exitX=1;exitY=0.5;exitDx=0;exitDy=0;" edge="1" parent="1" source="aerCkqadjuLeXgax63uh-11">
          <mxGeometry width="160" relative="1" as="geometry">
            <mxPoint x="450" y="272" as="sourcePoint" />
            <mxPoint x="720" y="260" as="targetPoint" />
          </mxGeometry>
        </mxCell>
      </root>
    </mxGraphModel>
  </diagram>
</mxfile>
